General                          : ChattChitto RG - Movies [R2L]
==========
Complete name                    : The Hit List 2011 720p BRRip H264 [ChattChitto RG]
Format                           : MPEG-4
Format profile                   : Base Media
Codec ID                         : isom
File size                        : 1.74 GiB
Duration                         : 1h 30mn
Overall bit rate                 : 2 755 Kbps
Encoded date                     : UTC 2011-04-20 17:59:18

Video
==========
ID                               : 1
Format                           : AVC
Format/Info                      : Advanced Video Codec
Format profile                   : High@L4.1
Format settings, CABAC           : Yes
Format settings, ReFrames        : 4 frames
Codec ID                         : avc1
Codec ID/Info                    : Advanced Video Coding
Duration                         : 1h 30mn
Bit rate mode                    : Variable
Bit rate                         : 2 400 Kbps
Maximum bit rate                 : 14.6 Mbps
Width                            : 1 280 pixels
Height                           : 720 pixels
Display aspect ratio             : 16:9
Frame rate mode                  : Constant
Frame rate                       : 23.976 fps
Color space                      : YUV
Chroma subsampling               : 4:2:0
Bit depth                        : 8 bits
Scan type                        : Progressive
Bits/(Pixel*Frame)               : 0.109
Stream size                      : 1.51 GiB (87%)
Writing library                  : x264 core 114 r1913 5fd3dce
Encoded date                     : UTC 2011-04-20 11:07:23

Audio
==========
ID                               : 2
Format                           : AAC
Format/Info                      : Advanced Audio Codec
Format profile                   : LC
Codec ID                         : 40
Duration                         : 1h 30mn
Bit rate mode                    : Variable
Bit rate                         : 352.8 Kbps
Maximum bit rate                 : 420 Kbps
Channel(s)                       : 6 channels
Channel positions                : Front: L C R, Side: L R, LFE
Sampling rate                    : 48.0 KHz
Compression mode                 : Lossy
Stream size                      : 227 MiB (13%)
Encoded date                     : UTC 2011-04-20 17:59:35

Subtitles                        : None


----------------------------------------------------
IMDB Link: http://www.imdb.com/title/tt1575694/
----------------------------------------------------



Screen Shots:
==============    
http://chattchitto.net/chattchittorg/movies/brrip/2011/the_hit_list/1.png 
http://chattchitto.net/chattchittorg/movies/brrip/2011/the_hit_list/2.png 
http://chattchitto.net/chattchittorg/movies/brrip/2011/the_hit_list/3.png 
http://chattchitto.net/chattchittorg/movies/brrip/2011/the_hit_list/4.png 
http://chattchitto.net/chattchittorg/movies/brrip/2011/the_hit_list/5.png 
http://chattchitto.net/chattchittorg/movies/brrip/2011/the_hit_list/6.png 
http://chattchitto.net/chattchittorg/movies/brrip/2011/the_hit_list/7.png



ScreenShots Comparison:
=========================  
http://screenshotcomparison.com/comparison/45533



Plot:
======
A disgruntled man creates a hit list with a stranger during a drunken night out and must then race to try to save those he marked for extermination as the bodies begin to pile up and all fingers point to him.



Release Info:
==============
original name .... : The Hit List 2011 720p BRRip H264 [ChattChitto RG]
ripper.............: CHD
encoder............: Recalled2Life (R2L)
video codec........: H264/.MP4
video bitrate......: 2400
audio codec........: AAC-LC
aspect ratio.......: 16:9
resolution.........: 1280 x 720
genre..............: Action | Thriller
runtime............: 1h 30mn
language...........: English
rating.............: R
subtitles..........: None
sample.............: Yes
2ch Audio..........: 2ch Audio for XBox Viewers
Compatibility .....: XBox | PS3 | WD Live



Source:
========
The.Hit.List.2011.BluRay.720p.DTS.x264-CHD  THANKS!



Notes:
=======
ChattChitto RG Encourages Burning this Film with ConvertXtoDVD and Playing with VLC media player.
XBox 360 | PS3 | WD Live - Compatible 
Enhanced for your viewing pleasure ;)